<svg aria-roledescription="sequence" role="graphics-document document" viewBox="-50 -10 3067.5 2176" style="max-width: 3067.5px;" xmlns="http://www.w3.org/2000/svg" width="100%" id="export-svg"><style xmlns="http://www.w3.org/1999/xhtml">@import url("https://cdnjs.cloudflare.com/ajax/libs/font-awesome/6.2.0/css/all.min.css"); p {margin: 0;}</style><g><rect filter="url(#drop-shadow)" data-look="neo" class="actor actor-bottom" ry="6" rx="6" name="RT Monitor (Optional)" height="65" width="191" stroke="#666" fill="#eaeaea" y="2090" x="2776.5"/><text class="actor actor-box" alignment-baseline="central" dominant-baseline="central" style="text-anchor: middle; font-size: 16px; font-weight: 400;" y="2122.5" x="2872"><tspan dy="0" x="2872">RT Monitor (Optional)</tspan></text></g><g><rect filter="url(#drop-shadow)" data-look="neo" class="actor actor-bottom" ry="6" rx="6" name="Target System (Code Repo/DB/App)" height="65" width="297" stroke="#666" fill="#eaeaea" y="2090" x="2429.5"/><text class="actor actor-box" alignment-baseline="central" dominant-baseline="central" style="text-anchor: middle; font-size: 16px; font-weight: 400;" y="2122.5" x="2578"><tspan dy="0" x="2578">Target System (Code Repo/DB/App)</tspan></text></g><g><rect filter="url(#drop-shadow)" data-look="neo" class="actor actor-bottom" ry="6" rx="6" name="Ollama (Gemma 3)" height="65" width="162" stroke="#666" fill="#eaeaea" y="2090" x="2217.5"/><text class="actor actor-box" alignment-baseline="central" dominant-baseline="central" style="text-anchor: middle; font-size: 16px; font-weight: 400;" y="2122.5" x="2298.5"><tspan dy="0" x="2298.5">Ollama (Gemma 3)</tspan></text></g><g><rect filter="url(#drop-shadow)" data-look="neo" class="actor actor-bottom" ry="6" rx="6" name="LlamaIndex" height="65" width="150" stroke="#666" fill="#eaeaea" y="2090" x="2017.5"/><text class="actor actor-box" alignment-baseline="central" dominant-baseline="central" style="text-anchor: middle; font-size: 16px; font-weight: 400;" y="2122.5" x="2092.5"><tspan dy="0" x="2092.5">LlamaIndex</tspan></text></g><g><rect filter="url(#drop-shadow)" data-look="neo" class="actor actor-bottom" ry="6" rx="6" name="Analysis Engine (Go/Python)" height="65" width="246" stroke="#666" fill="#eaeaea" y="2090" x="1544.5"/><text class="actor actor-box" alignment-baseline="central" dominant-baseline="central" style="text-anchor: middle; font-size: 16px; font-weight: 400;" y="2122.5" x="1667.5"><tspan dy="0" x="1667.5">Analysis Engine (Go/Python)</tspan></text></g><g><rect filter="url(#drop-shadow)" data-look="neo" class="actor actor-bottom" ry="6" rx="6" name="MongoDB" height="65" width="150" stroke="#666" fill="#eaeaea" y="2090" x="1308"/><text class="actor actor-box" alignment-baseline="central" dominant-baseline="central" style="text-anchor: middle; font-size: 16px; font-weight: 400;" y="2122.5" x="1383"><tspan dy="0" x="1383">MongoDB</tspan></text></g><g><rect filter="url(#drop-shadow)" data-look="neo" class="actor actor-bottom" ry="6" rx="6" name="Backend API (Go)" height="65" width="153" stroke="#666" fill="#eaeaea" y="2090" x="1017.5"/><text class="actor actor-box" alignment-baseline="central" dominant-baseline="central" style="text-anchor: middle; font-size: 16px; font-weight: 400;" y="2122.5" x="1094"><tspan dy="0" x="1094">Backend API (Go)</tspan></text></g><g><rect filter="url(#drop-shadow)" data-look="neo" class="actor actor-bottom" ry="6" rx="6" name="Frontend (React)" height="65" width="153" stroke="#666" fill="#eaeaea" y="2090" x="520.5"/><text class="actor actor-box" alignment-baseline="central" dominant-baseline="central" style="text-anchor: middle; font-size: 16px; font-weight: 400;" y="2122.5" x="597"><tspan dy="0" x="597">Frontend (React)</tspan></text></g><g><rect filter="url(#drop-shadow)" data-look="neo" class="actor actor-bottom" ry="6" rx="6" name="User" height="65" width="150" stroke="#666" fill="#eaeaea" y="2090" x="0"/><text class="actor actor-box" alignment-baseline="central" dominant-baseline="central" style="text-anchor: middle; font-size: 16px; font-weight: 400;" y="2122.5" x="75"><tspan dy="0" x="75">User</tspan></text></g><g><line data-id="RT Monitor (Optional)" data-et="life-line" name="RT Monitor (Optional)" stroke="#999" stroke-width="0.5px" class="actor-line 200" y2="2090" x2="2872" y1="65" x1="2872" id="actor44"/><g data-id="RT Monitor (Optional)" data-et="participant" data-look="neo" id="root-44"><rect filter="url(#drop-shadow)" data-look="neo" class="actor actor-top" ry="6" rx="6" name="RT Monitor (Optional)" height="65" width="191" stroke="#666" fill="#eaeaea" y="0" x="2776.5"/><text class="actor actor-box" alignment-baseline="central" dominant-baseline="central" style="text-anchor: middle; font-size: 16px; font-weight: 400;" y="32.5" x="2872"><tspan dy="0" x="2872">RT Monitor (Optional)</tspan></text></g></g><g><line data-id="Target System (Code Repo/DB/App)" data-et="life-line" name="Target System (Code Repo/DB/App)" stroke="#999" stroke-width="0.5px" class="actor-line 200" y2="2090" x2="2578" y1="65" x1="2578" id="actor43"/><g data-id="Target System (Code Repo/DB/App)" data-et="participant" data-look="neo" id="root-43"><rect filter="url(#drop-shadow)" data-look="neo" class="actor actor-top" ry="6" rx="6" name="Target System (Code Repo/DB/App)" height="65" width="297" stroke="#666" fill="#eaeaea" y="0" x="2429.5"/><text class="actor actor-box" alignment-baseline="central" dominant-baseline="central" style="text-anchor: middle; font-size: 16px; font-weight: 400;" y="32.5" x="2578"><tspan dy="0" x="2578">Target System (Code Repo/DB/App)</tspan></text></g></g><g><line data-id="Ollama (Gemma 3)" data-et="life-line" name="Ollama (Gemma 3)" stroke="#999" stroke-width="0.5px" class="actor-line 200" y2="2090" x2="2298.5" y1="65" x1="2298.5" id="actor42"/><g data-id="Ollama (Gemma 3)" data-et="participant" data-look="neo" id="root-42"><rect filter="url(#drop-shadow)" data-look="neo" class="actor actor-top" ry="6" rx="6" name="Ollama (Gemma 3)" height="65" width="162" stroke="#666" fill="#eaeaea" y="0" x="2217.5"/><text class="actor actor-box" alignment-baseline="central" dominant-baseline="central" style="text-anchor: middle; font-size: 16px; font-weight: 400;" y="32.5" x="2298.5"><tspan dy="0" x="2298.5">Ollama (Gemma 3)</tspan></text></g></g><g><line data-id="LlamaIndex" data-et="life-line" name="LlamaIndex" stroke="#999" stroke-width="0.5px" class="actor-line 200" y2="2090" x2="2092.5" y1="65" x1="2092.5" id="actor41"/><g data-id="LlamaIndex" data-et="participant" data-look="neo" id="root-41"><rect filter="url(#drop-shadow)" data-look="neo" class="actor actor-top" ry="6" rx="6" name="LlamaIndex" height="65" width="150" stroke="#666" fill="#eaeaea" y="0" x="2017.5"/><text class="actor actor-box" alignment-baseline="central" dominant-baseline="central" style="text-anchor: middle; font-size: 16px; font-weight: 400;" y="32.5" x="2092.5"><tspan dy="0" x="2092.5">LlamaIndex</tspan></text></g></g><g><line data-id="Analysis Engine (Go/Python)" data-et="life-line" name="Analysis Engine (Go/Python)" stroke="#999" stroke-width="0.5px" class="actor-line 200" y2="2090" x2="1667.5" y1="65" x1="1667.5" id="actor40"/><g data-id="Analysis Engine (Go/Python)" data-et="participant" data-look="neo" id="root-40"><rect filter="url(#drop-shadow)" data-look="neo" class="actor actor-top" ry="6" rx="6" name="Analysis Engine (Go/Python)" height="65" width="246" stroke="#666" fill="#eaeaea" y="0" x="1544.5"/><text class="actor actor-box" alignment-baseline="central" dominant-baseline="central" style="text-anchor: middle; font-size: 16px; font-weight: 400;" y="32.5" x="1667.5"><tspan dy="0" x="1667.5">Analysis Engine (Go/Python)</tspan></text></g></g><g><line data-id="MongoDB" data-et="life-line" name="MongoDB" stroke="#999" stroke-width="0.5px" class="actor-line 200" y2="2090" x2="1383" y1="65" x1="1383" id="actor39"/><g data-id="MongoDB" data-et="participant" data-look="neo" id="root-39"><rect filter="url(#drop-shadow)" data-look="neo" class="actor actor-top" ry="6" rx="6" name="MongoDB" height="65" width="150" stroke="#666" fill="#eaeaea" y="0" x="1308"/><text class="actor actor-box" alignment-baseline="central" dominant-baseline="central" style="text-anchor: middle; font-size: 16px; font-weight: 400;" y="32.5" x="1383"><tspan dy="0" x="1383">MongoDB</tspan></text></g></g><g><line data-id="Backend API (Go)" data-et="life-line" name="Backend API (Go)" stroke="#999" stroke-width="0.5px" class="actor-line 200" y2="2090" x2="1094" y1="65" x1="1094" id="actor38"/><g data-id="Backend API (Go)" data-et="participant" data-look="neo" id="root-38"><rect filter="url(#drop-shadow)" data-look="neo" class="actor actor-top" ry="6" rx="6" name="Backend API (Go)" height="65" width="153" stroke="#666" fill="#eaeaea" y="0" x="1017.5"/><text class="actor actor-box" alignment-baseline="central" dominant-baseline="central" style="text-anchor: middle; font-size: 16px; font-weight: 400;" y="32.5" x="1094"><tspan dy="0" x="1094">Backend API (Go)</tspan></text></g></g><g><line data-id="Frontend (React)" data-et="life-line" name="Frontend (React)" stroke="#999" stroke-width="0.5px" class="actor-line 200" y2="2090" x2="597" y1="65" x1="597" id="actor37"/><g data-id="Frontend (React)" data-et="participant" data-look="neo" id="root-37"><rect filter="url(#drop-shadow)" data-look="neo" class="actor actor-top" ry="6" rx="6" name="Frontend (React)" height="65" width="153" stroke="#666" fill="#eaeaea" y="0" x="520.5"/><text class="actor actor-box" alignment-baseline="central" dominant-baseline="central" style="text-anchor: middle; font-size: 16px; font-weight: 400;" y="32.5" x="597"><tspan dy="0" x="597">Frontend (React)</tspan></text></g></g><g><line data-id="User" data-et="life-line" name="User" stroke="#999" stroke-width="0.5px" class="actor-line 200" y2="2090" x2="75" y1="65" x1="75" id="actor36"/><g data-id="User" data-et="participant" data-look="neo" id="root-36"><rect filter="url(#drop-shadow)" data-look="neo" class="actor actor-top" ry="6" rx="6" name="User" height="65" width="150" stroke="#666" fill="#eaeaea" y="0" x="0"/><text class="actor actor-box" alignment-baseline="central" dominant-baseline="central" style="text-anchor: middle; font-size: 16px; font-weight: 400;" y="32.5" x="75"><tspan dy="0" x="75">User</tspan></text></g></g><style>#export-svg{font-family:arial,sans-serif;font-size:14px;fill:#333;}@keyframes edge-animation-frame{from{stroke-dashoffset:0;}}@keyframes dash{to{stroke-dashoffset:0;}}#export-svg .edge-animation-slow{stroke-dasharray:9,5!important;stroke-dashoffset:900;animation:dash 50s linear infinite;stroke-linecap:round;}#export-svg .edge-animation-fast{stroke-dasharray:9,5!important;stroke-dashoffset:900;animation:dash 20s linear infinite;stroke-linecap:round;}#export-svg .error-icon{fill:#ffffff;}#export-svg .error-text{fill:#000000;stroke:#000000;}#export-svg .edge-thickness-normal{stroke-width:2px;}#export-svg .edge-thickness-thick{stroke-width:3.5px;}#export-svg .edge-pattern-solid{stroke-dasharray:0;}#export-svg .edge-thickness-invisible{stroke-width:0;fill:none;}#export-svg .edge-pattern-dashed{stroke-dasharray:3;}#export-svg .edge-pattern-dotted{stroke-dasharray:2;}#export-svg .marker{fill:#000000;stroke:#000000;}#export-svg .marker.cross{stroke:#000000;}#export-svg svg{font-family:arial,sans-serif;font-size:14px;}#export-svg p{margin:0;}#export-svg .actor{stroke:hsl(0, 0%, 70%);fill:#ffffff;stroke-width:2;}#export-svg rect.actor.outer-path[data-look="neo"]{filter:drop-shadow( 0px 1px 2px rgba(0, 0, 0, 0.25));}#export-svg rect.note[data-look="neo"]{stroke:hsl(52.6829268293, 60%, 73.9215686275%);fill:#fff5ad;filter:drop-shadow( 0px 1px 2px rgba(0, 0, 0, 0.25));stroke-width:2;}#export-svg text.actor&gt;tspan{fill:#333;stroke:none;}#export-svg .actor-line{stroke:hsl(0, 0%, 70%);}#export-svg .messageLine0{stroke-width:2;stroke-dasharray:none;stroke:#333;}#export-svg .messageLine1{stroke-width:2;stroke-dasharray:2,2;stroke:#333;}#export-svg #arrowhead path{fill:#333;stroke:#333;}#export-svg .sequenceNumber{fill:#ffffff;}#export-svg #sequencenumber{fill:#333;}#export-svg #crosshead path{fill:#333;stroke:#333;}#export-svg .messageText{fill:#333;stroke:none;}#export-svg .labelBox{stroke:hsl(0, 0%, 70%);fill:#ffffff;filter:drop-shadow( 0px 1px 2px rgba(0, 0, 0, 0.25));}#export-svg .labelText,#export-svg .labelText&gt;tspan{fill:#333;stroke:none;}#export-svg .loopText,#export-svg .loopText&gt;tspan{fill:#333;stroke:none;}#export-svg .loopLine{stroke-width:2px;stroke-dasharray:2,2;stroke:hsl(0, 0%, 70%);fill:hsl(0, 0%, 70%);}#export-svg .note{stroke:hsl(52.6829268293, 60%, 73.9215686275%);fill:#fff5ad;}#export-svg .noteText,#export-svg .noteText&gt;tspan{fill:#333;stroke:none;}#export-svg .activation0{fill:hsl(-120, 0%, 80%);stroke:hsl(-120, 0%, 70%);}#export-svg .activation1{fill:hsl(-120, 0%, 80%);stroke:hsl(-120, 0%, 70%);}#export-svg .activation2{fill:hsl(-120, 0%, 80%);stroke:hsl(-120, 0%, 70%);}#export-svg .actorPopupMenu{position:absolute;}#export-svg .actorPopupMenuPanel{position:absolute;fill:#ffffff;box-shadow:0px 8px 16px 0px rgba(0,0,0,0.2);filter:drop-shadow(3px 5px 2px rgb(0 0 0 / 0.4));}#export-svg .actor-man circle,#export-svg line{fill:#ffffff;stroke-width:2px;}#export-svg g rect.rect{filter:drop-shadow( 0px 1px 2px rgba(0, 0, 0, 0.25));stroke:#000000;stroke-width:2;}#export-svg .node .neo-node{stroke:#000000;}#export-svg [data-look="neo"].node rect,#export-svg [data-look="neo"].cluster rect,#export-svg [data-look="neo"].node polygon{stroke:url(#export-svg-gradient);filter:drop-shadow( 0px 1px 2px rgba(0, 0, 0, 0.25));}#export-svg [data-look="neo"].node path{stroke:url(#export-svg-gradient);}#export-svg [data-look="neo"].node .outer-path{filter:drop-shadow( 0px 1px 2px rgba(0, 0, 0, 0.25));}#export-svg [data-look="neo"].node .neo-line path{stroke:#000000;filter:none;}#export-svg [data-look="neo"].node circle{stroke:url(#export-svg-gradient);filter:drop-shadow( 0px 1px 2px rgba(0, 0, 0, 0.25));}#export-svg [data-look="neo"].node circle .state-start{fill:#000000;}#export-svg [data-look="neo"].statediagram-cluster rect{fill:#ffffff;stroke:url(#export-svg-gradient);stroke-width:1px;}#export-svg [data-look="neo"].icon-shape .icon{fill:url(#export-svg-gradient);filter:drop-shadow( 0px 1px 2px rgba(0, 0, 0, 0.25));}#export-svg [data-look="neo"].icon-shape .icon-neo path{stroke:url(#export-svg-gradient);filter:drop-shadow( 0px 1px 2px rgba(0, 0, 0, 0.25));}#export-svg :root{--mermaid-font-family:"trebuchet ms",verdana,arial,sans-serif;}</style><g/><defs><symbol height="24" width="24" id="computer"><path d="M2 2v13h20v-13h-20zm18 11h-16v-9h16v9zm-10.228 6l.466-1h3.524l.467 1h-4.457zm14.228 3h-24l2-6h2.104l-1.33 4h18.45l-1.297-4h2.073l2 6zm-5-10h-14v-7h14v7z" transform="scale(.5)"/></symbol></defs><defs><symbol clip-rule="evenodd" fill-rule="evenodd" id="database"><path d="M12.258.001l.256.004.255.005.253.008.251.01.249.012.247.015.246.016.242.019.241.02.239.023.236.024.233.027.231.028.229.031.225.032.223.034.22.036.217.038.214.04.211.041.208.043.205.045.201.046.198.048.194.05.191.051.187.053.183.054.18.056.175.057.172.059.168.06.163.061.16.063.155.064.15.066.074.033.073.033.071.034.07.034.069.035.068.035.067.035.066.035.064.036.064.036.062.036.06.036.06.037.058.037.058.037.055.038.055.038.053.038.052.038.051.039.05.039.048.039.047.039.045.04.044.04.043.04.041.04.04.041.039.041.037.041.036.041.034.041.033.042.032.042.03.042.029.042.027.042.026.043.024.043.023.043.021.043.02.043.018.044.017.043.015.044.013.044.012.044.011.045.009.044.007.045.006.045.004.045.002.045.001.045v17l-.001.045-.002.045-.004.045-.006.045-.007.045-.009.044-.011.045-.012.044-.013.044-.015.044-.017.043-.018.044-.02.043-.021.043-.023.043-.024.043-.026.043-.027.042-.029.042-.03.042-.032.042-.033.042-.034.041-.036.041-.037.041-.039.041-.04.041-.041.04-.043.04-.044.04-.045.04-.047.039-.048.039-.05.039-.051.039-.052.038-.053.038-.055.038-.055.038-.058.037-.058.037-.06.037-.06.036-.062.036-.064.036-.064.036-.066.035-.067.035-.068.035-.069.035-.07.034-.071.034-.073.033-.074.033-.15.066-.155.064-.16.063-.163.061-.168.06-.172.059-.175.057-.18.056-.183.054-.187.053-.191.051-.194.05-.198.048-.201.046-.205.045-.208.043-.211.041-.214.04-.217.038-.22.036-.223.034-.225.032-.229.031-.231.028-.233.027-.236.024-.239.023-.241.02-.242.019-.246.016-.247.015-.249.012-.251.01-.253.008-.255.005-.256.004-.258.001-.258-.001-.256-.004-.255-.005-.253-.008-.251-.01-.249-.012-.247-.015-.245-.016-.243-.019-.241-.02-.238-.023-.236-.024-.234-.027-.231-.028-.228-.031-.226-.032-.223-.034-.22-.036-.217-.038-.214-.04-.211-.041-.208-.043-.204-.045-.201-.046-.198-.048-.195-.05-.19-.051-.187-.053-.184-.054-.179-.056-.176-.057-.172-.059-.167-.06-.164-.061-.159-.063-.155-.064-.151-.066-.074-.033-.072-.033-.072-.034-.07-.034-.069-.035-.068-.035-.067-.035-.066-.035-.064-.036-.063-.036-.062-.036-.061-.036-.06-.037-.058-.037-.057-.037-.056-.038-.055-.038-.053-.038-.052-.038-.051-.039-.049-.039-.049-.039-.046-.039-.046-.04-.044-.04-.043-.04-.041-.04-.04-.041-.039-.041-.037-.041-.036-.041-.034-.041-.033-.042-.032-.042-.03-.042-.029-.042-.027-.042-.026-.043-.024-.043-.023-.043-.021-.043-.02-.043-.018-.044-.017-.043-.015-.044-.013-.044-.012-.044-.011-.045-.009-.044-.007-.045-.006-.045-.004-.045-.002-.045-.001-.045v-17l.001-.045.002-.045.004-.045.006-.045.007-.045.009-.044.011-.045.012-.044.013-.044.015-.044.017-.043.018-.044.02-.043.021-.043.023-.043.024-.043.026-.043.027-.042.029-.042.03-.042.032-.042.033-.042.034-.041.036-.041.037-.041.039-.041.04-.041.041-.04.043-.04.044-.04.046-.04.046-.039.049-.039.049-.039.051-.039.052-.038.053-.038.055-.038.056-.038.057-.037.058-.037.06-.037.061-.036.062-.036.063-.036.064-.036.066-.035.067-.035.068-.035.069-.035.07-.034.072-.034.072-.033.074-.033.151-.066.155-.064.159-.063.164-.061.167-.06.172-.059.176-.057.179-.056.184-.054.187-.053.19-.051.195-.05.198-.048.201-.046.204-.045.208-.043.211-.041.214-.04.217-.038.22-.036.223-.034.226-.032.228-.031.231-.028.234-.027.236-.024.238-.023.241-.02.243-.019.245-.016.247-.015.249-.012.251-.01.253-.008.255-.005.256-.004.258-.001.258.001zm-9.258 20.499v.01l.001.021.003.021.004.022.005.021.006.022.007.022.009.023.01.022.011.023.012.023.013.023.015.023.016.024.017.023.018.024.019.024.021.024.022.025.023.024.024.025.052.049.056.05.061.051.066.051.07.051.075.051.079.052.084.052.088.052.092.052.097.052.102.051.105.052.11.052.114.051.119.051.123.051.127.05.131.05.135.05.139.048.144.049.147.047.152.047.155.047.16.045.163.045.167.043.171.043.176.041.178.041.183.039.187.039.19.037.194.035.197.035.202.033.204.031.209.03.212.029.216.027.219.025.222.024.226.021.23.02.233.018.236.016.24.015.243.012.246.01.249.008.253.005.256.004.259.001.26-.001.257-.004.254-.005.25-.008.247-.011.244-.012.241-.014.237-.016.233-.018.231-.021.226-.021.224-.024.22-.026.216-.027.212-.028.21-.031.205-.031.202-.034.198-.034.194-.036.191-.037.187-.039.183-.04.179-.04.175-.042.172-.043.168-.044.163-.045.16-.046.155-.046.152-.047.148-.048.143-.049.139-.049.136-.05.131-.05.126-.05.123-.051.118-.052.114-.051.11-.052.106-.052.101-.052.096-.052.092-.052.088-.053.083-.051.079-.052.074-.052.07-.051.065-.051.06-.051.056-.05.051-.05.023-.024.023-.025.021-.024.02-.024.019-.024.018-.024.017-.024.015-.023.014-.024.013-.023.012-.023.01-.023.01-.022.008-.022.006-.022.006-.022.004-.022.004-.021.001-.021.001-.021v-4.127l-.077.055-.08.053-.083.054-.085.053-.087.052-.09.052-.093.051-.095.05-.097.05-.1.049-.102.049-.105.048-.106.047-.109.047-.111.046-.114.045-.115.045-.118.044-.12.043-.122.042-.124.042-.126.041-.128.04-.13.04-.132.038-.134.038-.135.037-.138.037-.139.035-.142.035-.143.034-.144.033-.147.032-.148.031-.15.03-.151.03-.153.029-.154.027-.156.027-.158.026-.159.025-.161.024-.162.023-.163.022-.165.021-.166.02-.167.019-.169.018-.169.017-.171.016-.173.015-.173.014-.175.013-.175.012-.177.011-.178.01-.179.008-.179.008-.181.006-.182.005-.182.004-.184.003-.184.002h-.37l-.184-.002-.184-.003-.182-.004-.182-.005-.181-.006-.179-.008-.179-.008-.178-.01-.176-.011-.176-.012-.175-.013-.173-.014-.172-.015-.171-.016-.17-.017-.169-.018-.167-.019-.166-.02-.165-.021-.163-.022-.162-.023-.161-.024-.159-.025-.157-.026-.156-.027-.155-.027-.153-.029-.151-.03-.15-.03-.148-.031-.146-.032-.145-.033-.143-.034-.141-.035-.14-.035-.137-.037-.136-.037-.134-.038-.132-.038-.13-.04-.128-.04-.126-.041-.124-.042-.122-.042-.12-.044-.117-.043-.116-.045-.113-.045-.112-.046-.109-.047-.106-.047-.105-.048-.102-.049-.1-.049-.097-.05-.095-.05-.093-.052-.09-.051-.087-.052-.085-.053-.083-.054-.08-.054-.077-.054v4.127zm0-5.654v.011l.001.021.003.021.004.021.005.022.006.022.007.022.009.022.01.022.011.023.012.023.013.023.015.024.016.023.017.024.018.024.019.024.021.024.022.024.023.025.024.024.052.05.056.05.061.05.066.051.07.051.075.052.079.051.084.052.088.052.092.052.097.052.102.052.105.052.11.051.114.051.119.052.123.05.127.051.131.05.135.049.139.049.144.048.147.048.152.047.155.046.16.045.163.045.167.044.171.042.176.042.178.04.183.04.187.038.19.037.194.036.197.034.202.033.204.032.209.03.212.028.216.027.219.025.222.024.226.022.23.02.233.018.236.016.24.014.243.012.246.01.249.008.253.006.256.003.259.001.26-.001.257-.003.254-.006.25-.008.247-.01.244-.012.241-.015.237-.016.233-.018.231-.02.226-.022.224-.024.22-.025.216-.027.212-.029.21-.03.205-.032.202-.033.198-.035.194-.036.191-.037.187-.039.183-.039.179-.041.175-.042.172-.043.168-.044.163-.045.16-.045.155-.047.152-.047.148-.048.143-.048.139-.05.136-.049.131-.05.126-.051.123-.051.118-.051.114-.052.11-.052.106-.052.101-.052.096-.052.092-.052.088-.052.083-.052.079-.052.074-.051.07-.052.065-.051.06-.05.056-.051.051-.049.023-.025.023-.024.021-.025.02-.024.019-.024.018-.024.017-.024.015-.023.014-.023.013-.024.012-.022.01-.023.01-.023.008-.022.006-.022.006-.022.004-.021.004-.022.001-.021.001-.021v-4.139l-.077.054-.08.054-.083.054-.085.052-.087.053-.09.051-.093.051-.095.051-.097.05-.1.049-.102.049-.105.048-.106.047-.109.047-.111.046-.114.045-.115.044-.118.044-.12.044-.122.042-.124.042-.126.041-.128.04-.13.039-.132.039-.134.038-.135.037-.138.036-.139.036-.142.035-.143.033-.144.033-.147.033-.148.031-.15.03-.151.03-.153.028-.154.028-.156.027-.158.026-.159.025-.161.024-.162.023-.163.022-.165.021-.166.02-.167.019-.169.018-.169.017-.171.016-.173.015-.173.014-.175.013-.175.012-.177.011-.178.009-.179.009-.179.007-.181.007-.182.005-.182.004-.184.003-.184.002h-.37l-.184-.002-.184-.003-.182-.004-.182-.005-.181-.007-.179-.007-.179-.009-.178-.009-.176-.011-.176-.012-.175-.013-.173-.014-.172-.015-.171-.016-.17-.017-.169-.018-.167-.019-.166-.02-.165-.021-.163-.022-.162-.023-.161-.024-.159-.025-.157-.026-.156-.027-.155-.028-.153-.028-.151-.03-.15-.03-.148-.031-.146-.033-.145-.033-.143-.033-.141-.035-.14-.036-.137-.036-.136-.037-.134-.038-.132-.039-.13-.039-.128-.04-.126-.041-.124-.042-.122-.043-.12-.043-.117-.044-.116-.044-.113-.046-.112-.046-.109-.046-.106-.047-.105-.048-.102-.049-.1-.049-.097-.05-.095-.051-.093-.051-.09-.051-.087-.053-.085-.052-.083-.054-.08-.054-.077-.054v4.139zm0-5.666v.011l.001.02.003.022.004.021.005.022.006.021.007.022.009.023.01.022.011.023.012.023.013.023.015.023.016.024.017.024.018.023.019.024.021.025.022.024.023.024.024.025.052.05.056.05.061.05.066.051.07.051.075.052.079.051.084.052.088.052.092.052.097.052.102.052.105.051.11.052.114.051.119.051.123.051.127.05.131.05.135.05.139.049.144.048.147.048.152.047.155.046.16.045.163.045.167.043.171.043.176.042.178.04.183.04.187.038.19.037.194.036.197.034.202.033.204.032.209.03.212.028.216.027.219.025.222.024.226.021.23.02.233.018.236.017.24.014.243.012.246.01.249.008.253.006.256.003.259.001.26-.001.257-.003.254-.006.25-.008.247-.01.244-.013.241-.014.237-.016.233-.018.231-.02.226-.022.224-.024.22-.025.216-.027.212-.029.21-.03.205-.032.202-.033.198-.035.194-.036.191-.037.187-.039.183-.039.179-.041.175-.042.172-.043.168-.044.163-.045.16-.045.155-.047.152-.047.148-.048.143-.049.139-.049.136-.049.131-.051.126-.05.123-.051.118-.052.114-.051.11-.052.106-.052.101-.052.096-.052.092-.052.088-.052.083-.052.079-.052.074-.052.07-.051.065-.051.06-.051.056-.05.051-.049.023-.025.023-.025.021-.024.02-.024.019-.024.018-.024.017-.024.015-.023.014-.024.013-.023.012-.023.01-.022.01-.023.008-.022.006-.022.006-.022.004-.022.004-.021.001-.021.001-.021v-4.153l-.077.054-.08.054-.083.053-.085.053-.087.053-.09.051-.093.051-.095.051-.097.05-.1.049-.102.048-.105.048-.106.048-.109.046-.111.046-.114.046-.115.044-.118.044-.12.043-.122.043-.124.042-.126.041-.128.04-.13.039-.132.039-.134.038-.135.037-.138.036-.139.036-.142.034-.143.034-.144.033-.147.032-.148.032-.15.03-.151.03-.153.028-.154.028-.156.027-.158.026-.159.024-.161.024-.162.023-.163.023-.165.021-.166.02-.167.019-.169.018-.169.017-.171.016-.173.015-.173.014-.175.013-.175.012-.177.01-.178.01-.179.009-.179.007-.181.006-.182.006-.182.004-.184.003-.184.001-.185.001-.185-.001-.184-.001-.184-.003-.182-.004-.182-.006-.181-.006-.179-.007-.179-.009-.178-.01-.176-.01-.176-.012-.175-.013-.173-.014-.172-.015-.171-.016-.17-.017-.169-.018-.167-.019-.166-.02-.165-.021-.163-.023-.162-.023-.161-.024-.159-.024-.157-.026-.156-.027-.155-.028-.153-.028-.151-.03-.15-.03-.148-.032-.146-.032-.145-.033-.143-.034-.141-.034-.14-.036-.137-.036-.136-.037-.134-.038-.132-.039-.13-.039-.128-.041-.126-.041-.124-.041-.122-.043-.12-.043-.117-.044-.116-.044-.113-.046-.112-.046-.109-.046-.106-.048-.105-.048-.102-.048-.1-.05-.097-.049-.095-.051-.093-.051-.09-.052-.087-.052-.085-.053-.083-.053-.08-.054-.077-.054v4.153zm8.74-8.179l-.257.004-.254.005-.25.008-.247.011-.244.012-.241.014-.237.016-.233.018-.231.021-.226.022-.224.023-.22.026-.216.027-.212.028-.21.031-.205.032-.202.033-.198.034-.194.036-.191.038-.187.038-.183.04-.179.041-.175.042-.172.043-.168.043-.163.045-.16.046-.155.046-.152.048-.148.048-.143.048-.139.049-.136.05-.131.05-.126.051-.123.051-.118.051-.114.052-.11.052-.106.052-.101.052-.096.052-.092.052-.088.052-.083.052-.079.052-.074.051-.07.052-.065.051-.06.05-.056.05-.051.05-.023.025-.023.024-.021.024-.02.025-.019.024-.018.024-.017.023-.015.024-.014.023-.013.023-.012.023-.01.023-.01.022-.008.022-.006.023-.006.021-.004.022-.004.021-.001.021-.001.021.001.021.001.021.004.021.004.022.006.021.006.023.008.022.01.022.01.023.012.023.013.023.014.023.015.024.017.023.018.024.019.024.02.025.021.024.023.024.023.025.051.05.056.05.06.05.065.051.07.052.074.051.079.052.083.052.088.052.092.052.096.052.101.052.106.052.11.052.114.052.118.051.123.051.126.051.131.05.136.05.139.049.143.048.148.048.152.048.155.046.16.046.163.045.168.043.172.043.175.042.179.041.183.04.187.038.191.038.194.036.198.034.202.033.205.032.21.031.212.028.216.027.22.026.224.023.226.022.231.021.233.018.237.016.241.014.244.012.247.011.25.008.254.005.257.004.26.001.26-.001.257-.004.254-.005.25-.008.247-.011.244-.012.241-.014.237-.016.233-.018.231-.021.226-.022.224-.023.22-.026.216-.027.212-.028.21-.031.205-.032.202-.033.198-.034.194-.036.191-.038.187-.038.183-.04.179-.041.175-.042.172-.043.168-.043.163-.045.16-.046.155-.046.152-.048.148-.048.143-.048.139-.049.136-.05.131-.05.126-.051.123-.051.118-.051.114-.052.11-.052.106-.052.101-.052.096-.052.092-.052.088-.052.083-.052.079-.052.074-.051.07-.052.065-.051.06-.05.056-.05.051-.05.023-.025.023-.024.021-.024.02-.025.019-.024.018-.024.017-.023.015-.024.014-.023.013-.023.012-.023.01-.023.01-.022.008-.022.006-.023.006-.021.004-.022.004-.021.001-.021.001-.021-.001-.021-.001-.021-.004-.021-.004-.022-.006-.021-.006-.023-.008-.022-.01-.022-.01-.023-.012-.023-.013-.023-.014-.023-.015-.024-.017-.023-.018-.024-.019-.024-.02-.025-.021-.024-.023-.024-.023-.025-.051-.05-.056-.05-.06-.05-.065-.051-.07-.052-.074-.051-.079-.052-.083-.052-.088-.052-.092-.052-.096-.052-.101-.052-.106-.052-.11-.052-.114-.052-.118-.051-.123-.051-.126-.051-.131-.05-.136-.05-.139-.049-.143-.048-.148-.048-.152-.048-.155-.046-.16-.046-.163-.045-.168-.043-.172-.043-.175-.042-.179-.041-.183-.04-.187-.038-.191-.038-.194-.036-.198-.034-.202-.033-.205-.032-.21-.031-.212-.028-.216-.027-.22-.026-.224-.023-.226-.022-.231-.021-.233-.018-.237-.016-.241-.014-.244-.012-.247-.011-.25-.008-.254-.005-.257-.004-.26-.001-.26.001z" transform="scale(.5)"/></symbol></defs><defs><symbol height="24" width="24" id="clock"><path d="M12 2c5.514 0 10 4.486 10 10s-4.486 10-10 10-10-4.486-10-10 4.486-10 10-10zm0-2c-6.627 0-12 5.373-12 12s5.373 12 12 12 12-5.373 12-12-5.373-12-12-12zm5.848 12.459c.202.038.202.333.001.372-1.907.361-6.045 1.111-6.547 1.111-.719 0-1.301-.582-1.301-1.301 0-.512.77-5.447 1.125-7.445.034-.192.312-.181.343.014l.985 6.238 5.394 1.011z" transform="scale(.5)"/></symbol></defs><defs><marker orient="auto-start-reverse" markerHeight="12" markerWidth="12" markerUnits="userSpaceOnUse" refY="5" refX="7.9" id="arrowhead"><path d="M -1 0 L 10 5 L 0 10 z"/></marker></defs><defs><marker refY="4.5" refX="4" orient="auto" markerHeight="8" markerWidth="15" id="crosshead"><path style="stroke-dasharray: 0, 0;" d="M 1,2 L 6,7 M 6,2 L 1,7" stroke-width="1pt" stroke="#000000" fill="none"/></marker></defs><defs><marker orient="auto" markerHeight="28" markerWidth="20" refY="7" refX="15.5" id="filled-head"><path d="M 18,7 L9,13 L14,7 L9,1 Z"/></marker></defs><defs><marker orient="auto" markerHeight="40" markerWidth="60" refY="15" refX="15" id="sequencenumber"><circle r="6" cy="15" cx="15"/></marker></defs><g data-id="i5" data-et="note"><rect data-look="neo" class="note" height="38" width="411" stroke="#666" fill="#EDF2AE" y="315" x="888.5"/><text dy="1em" class="noteText" style="font-size: 16px; font-weight: 400;" alignment-baseline="middle" dominant-baseline="middle" text-anchor="middle" y="320" x="1094"><tspan x="1094">Scheduler triggers job OR User clicks "Scan Now"</tspan></text></g><g data-id="i23" data-et="control-structure"><line class="loopLine" y2="969" x2="2309.5" y1="969" x1="1656.5"/><line class="loopLine" y2="1206" x2="2309.5" y1="969" x1="2309.5"/><line class="loopLine" y2="1206" x2="2309.5" y1="1206" x1="1656.5"/><line class="loopLine" y2="1206" x2="1656.5" y1="969" x1="1656.5"/><polygon class="labelBox" points="1656.5,969 1706.5,969 1706.5,997 1698.1,1004 1656.5,1004"/><text class="labelText" style="font-size: 16px; font-weight: 400;" alignment-baseline="middle" dominant-baseline="middle" text-anchor="middle" y="989" x="1682">loop</text><text class="loopText" style="font-size: 16px; font-weight: 400;" text-anchor="middle" y="987" x="2008"><tspan x="2008">[For Each Identified Risk]</tspan></text></g><g data-id="i37" data-et="note"><rect data-look="neo" class="note" height="38" width="469" stroke="#666" fill="#EDF2AE" y="1840" x="1433"/><text dy="1em" class="noteText" style="font-size: 16px; font-weight: 400;" alignment-baseline="middle" dominant-baseline="middle" text-anchor="middle" y="1845" x="1668"><tspan x="1668">Perform targeted LlamaIndex query &amp; Gemma 3 analysis</tspan></text></g><text dy="1em" class="messageText" style="font-size: 16px; font-weight: 400;" alignment-baseline="middle" dominant-baseline="middle" text-anchor="middle" y="80" x="333">Access UI, Configure Scan (Target, Framework, Schedule)</text><line style="fill: none;" marker-end="url(#arrowhead)" stroke="none" stroke-width="2" data-to="Frontend (React)" data-from="User" data-id="i0" data-et="message" class="messageLine0" y2="113" x2="590" y1="113" x1="76"/><text dy="1em" class="messageText" style="font-size: 16px; font-weight: 400;" alignment-baseline="middle" dominant-baseline="middle" text-anchor="middle" y="128" x="843">POST /api/scans/config (Config Data)</text><line style="fill: none;" marker-end="url(#arrowhead)" stroke="none" stroke-width="2" data-to="Backend API (Go)" data-from="Frontend (React)" data-id="i1" data-et="message" class="messageLine0" y2="161" x2="1087" y1="161" x1="598"/><text dy="1em" class="messageText" style="font-size: 16px; font-weight: 400;" alignment-baseline="middle" dominant-baseline="middle" text-anchor="middle" y="176" x="1236">Store Scan Configuration</text><line style="fill: none;" marker-end="url(#arrowhead)" stroke="none" stroke-width="2" data-to="MongoDB" data-from="Backend API (Go)" data-id="i2" data-et="message" class="messageLine0" y2="209" x2="1376" y1="209" x1="1095"/><text dy="1em" class="messageText" style="font-size: 16px; font-weight: 400;" alignment-baseline="middle" dominant-baseline="middle" text-anchor="middle" y="224" x="1242">Config Saved Confirmation</text><line marker-end="url(#arrowhead)" style="stroke-dasharray: 3, 3; fill: none;" stroke="none" stroke-width="2" data-to="Backend API (Go)" data-from="MongoDB" data-id="i3" data-et="message" class="messageLine1" y2="257" x2="1101" y1="257" x1="1382"/><text dy="1em" class="messageText" style="font-size: 16px; font-weight: 400;" alignment-baseline="middle" dominant-baseline="middle" text-anchor="middle" y="272" x="849">HTTP 201 Created</text><line marker-end="url(#arrowhead)" style="stroke-dasharray: 3, 3; fill: none;" stroke="none" stroke-width="2" data-to="Frontend (React)" data-from="Backend API (Go)" data-id="i4" data-et="message" class="messageLine1" y2="305" x2="604" y1="305" x1="1093"/><text dy="1em" class="messageText" style="font-size: 16px; font-weight: 400;" alignment-baseline="middle" dominant-baseline="middle" text-anchor="middle" y="368" x="1236">Get Scan Config for Job</text><line style="fill: none;" marker-end="url(#arrowhead)" stroke="none" stroke-width="2" data-to="MongoDB" data-from="Backend API (Go)" data-id="i6" data-et="message" class="messageLine0" y2="401" x2="1376" y1="401" x1="1095"/><text dy="1em" class="messageText" style="font-size: 16px; font-weight: 400;" alignment-baseline="middle" dominant-baseline="middle" text-anchor="middle" y="416" x="1242">Return Scan Config</text><line marker-end="url(#arrowhead)" style="stroke-dasharray: 3, 3; fill: none;" stroke="none" stroke-width="2" data-to="Backend API (Go)" data-from="MongoDB" data-id="i7" data-et="message" class="messageLine1" y2="449" x2="1101" y1="449" x1="1382"/><text dy="1em" class="messageText" style="font-size: 16px; font-weight: 400;" alignment-baseline="middle" dominant-baseline="middle" text-anchor="middle" y="464" x="1378">Initiate Scan (Config)</text><line style="fill: none;" marker-end="url(#arrowhead)" stroke="none" stroke-width="2" data-to="Analysis Engine (Go/Python)" data-from="Backend API (Go)" data-id="i8" data-et="message" class="messageLine0" y2="497" x2="1660.5" y1="497" x1="1095"/><text dy="1em" class="messageText" style="font-size: 16px; font-weight: 400;" alignment-baseline="middle" dominant-baseline="middle" text-anchor="middle" y="512" x="2120">Connect &amp; Fetch Data (Code, Schema)</text><line style="fill: none;" marker-end="url(#arrowhead)" stroke="none" stroke-width="2" data-to="Target System (Code Repo/DB/App)" data-from="Analysis Engine (Go/Python)" data-id="i9" data-et="message" class="messageLine0" y2="545" x2="2571" y1="545" x1="1668.5"/><text dy="1em" class="messageText" style="font-size: 16px; font-weight: 400;" alignment-baseline="middle" dominant-baseline="middle" text-anchor="middle" y="560" x="2126">Return Raw Data</text><line marker-end="url(#arrowhead)" style="stroke-dasharray: 3, 3; fill: none;" stroke="none" stroke-width="2" data-to="Analysis Engine (Go/Python)" data-from="Target System (Code Repo/DB/App)" data-id="i10" data-et="message" class="messageLine1" y2="593" x2="1674.5" y1="593" x1="2577"/><text dy="1em" class="messageText" style="font-size: 16px; font-weight: 400;" alignment-baseline="middle" dominant-baseline="middle" text-anchor="middle" y="608" x="1669">Parse Code &amp; Schema</text><path style="fill: none;" marker-end="url(#arrowhead)" stroke="none" stroke-width="2" data-to="Analysis Engine (Go/Python)" data-from="Analysis Engine (Go/Python)" data-id="i11" data-et="message" class="messageLine0" d="M 1668.5,641 C 1728.5,631 1728.5,671 1668.5,661"/><text dy="1em" class="messageText" style="font-size: 16px; font-weight: 400;" alignment-baseline="middle" dominant-baseline="middle" text-anchor="middle" y="686" x="1877">Index Processed Data (Snippets, Structures)</text><line style="fill: none;" marker-end="url(#arrowhead)" stroke="none" stroke-width="2" data-to="LlamaIndex" data-from="Analysis Engine (Go/Python)" data-id="i12" data-et="message" class="messageLine0" y2="719" x2="2085.5" y1="719" x1="1668.5"/><text dy="1em" class="messageText" style="font-size: 16px; font-weight: 400;" alignment-baseline="middle" dominant-baseline="middle" text-anchor="middle" y="734" x="1883">Indexing Complete/Update Confirmation</text><line marker-end="url(#arrowhead)" style="stroke-dasharray: 3, 3; fill: none;" stroke="none" stroke-width="2" data-to="Analysis Engine (Go/Python)" data-from="LlamaIndex" data-id="i13" data-et="message" class="messageLine1" y2="767" x2="1674.5" y1="767" x1="2091.5"/><text dy="1em" class="messageText" style="font-size: 16px; font-weight: 400;" alignment-baseline="middle" dominant-baseline="middle" text-anchor="middle" y="782" x="1877">Query Data Map based on Compliance Rules</text><line style="fill: none;" marker-end="url(#arrowhead)" stroke="none" stroke-width="2" data-to="LlamaIndex" data-from="Analysis Engine (Go/Python)" data-id="i14" data-et="message" class="messageLine0" y2="815" x2="2085.5" y1="815" x1="1668.5"/><text dy="1em" class="messageText" style="font-size: 16px; font-weight: 400;" alignment-baseline="middle" dominant-baseline="middle" text-anchor="middle" y="830" x="1883">Return Relevant Map Context</text><line marker-end="url(#arrowhead)" style="stroke-dasharray: 3, 3; fill: none;" stroke="none" stroke-width="2" data-to="Analysis Engine (Go/Python)" data-from="LlamaIndex" data-id="i15" data-et="message" class="messageLine1" y2="863" x2="1674.5" y1="863" x1="2091.5"/><text dy="1em" class="messageText" style="font-size: 16px; font-weight: 400;" alignment-baseline="middle" dominant-baseline="middle" text-anchor="middle" y="878" x="1980">Send Prompt (Context + Compliance Rule for Risk Assessment)</text><line style="fill: none;" marker-end="url(#arrowhead)" stroke="none" stroke-width="2" data-to="Ollama (Gemma 3)" data-from="Analysis Engine (Go/Python)" data-id="i16" data-et="message" class="messageLine0" y2="911" x2="2291.5" y1="911" x1="1668.5"/><text dy="1em" class="messageText" style="font-size: 16px; font-weight: 400;" alignment-baseline="middle" dominant-baseline="middle" text-anchor="middle" y="926" x="1986">Return Potential Risks/Gaps</text><line marker-end="url(#arrowhead)" style="stroke-dasharray: 3, 3; fill: none;" stroke="none" stroke-width="2" data-to="Analysis Engine (Go/Python)" data-from="Ollama (Gemma 3)" data-id="i17" data-et="message" class="messageLine1" y2="959" x2="1674.5" y1="959" x1="2297.5"/><text dy="1em" class="messageText" style="font-size: 16px; font-weight: 400;" alignment-baseline="middle" dominant-baseline="middle" text-anchor="middle" y="1019" x="1980">Send Prompt (Risk Context for Explanation)</text><line style="fill: none;" marker-end="url(#arrowhead)" stroke="none" stroke-width="2" data-to="Ollama (Gemma 3)" data-from="Analysis Engine (Go/Python)" data-id="i19" data-et="message" class="messageLine0" y2="1052" x2="2291.5" y1="1052" x1="1668.5"/><text dy="1em" class="messageText" style="font-size: 16px; font-weight: 400;" alignment-baseline="middle" dominant-baseline="middle" text-anchor="middle" y="1067" x="1986">Return Natural Language Explanation</text><line marker-end="url(#arrowhead)" style="stroke-dasharray: 3, 3; fill: none;" stroke="none" stroke-width="2" data-to="Analysis Engine (Go/Python)" data-from="Ollama (Gemma 3)" data-id="i20" data-et="message" class="messageLine1" y2="1100" x2="1674.5" y1="1100" x1="2297.5"/><text dy="1em" class="messageText" style="font-size: 16px; font-weight: 400;" alignment-baseline="middle" dominant-baseline="middle" text-anchor="middle" y="1115" x="1980">Send Prompt (Risk Context for Remediation)</text><line style="fill: none;" marker-end="url(#arrowhead)" stroke="none" stroke-width="2" data-to="Ollama (Gemma 3)" data-from="Analysis Engine (Go/Python)" data-id="i21" data-et="message" class="messageLine0" y2="1148" x2="2291.5" y1="1148" x1="1668.5"/><text dy="1em" class="messageText" style="font-size: 16px; font-weight: 400;" alignment-baseline="middle" dominant-baseline="middle" text-anchor="middle" y="1163" x="1986">Return Actionable Remediation Steps</text><line marker-end="url(#arrowhead)" style="stroke-dasharray: 3, 3; fill: none;" stroke="none" stroke-width="2" data-to="Analysis Engine (Go/Python)" data-from="Ollama (Gemma 3)" data-id="i22" data-et="message" class="messageLine1" y2="1196" x2="1674.5" y1="1196" x1="2297.5"/><text dy="1em" class="messageText" style="font-size: 16px; font-weight: 400;" alignment-baseline="middle" dominant-baseline="middle" text-anchor="middle" y="1221" x="1384">Send Scan Results (Map Data, Risks, Explanations, Remediation)</text><line style="fill: none;" marker-end="url(#arrowhead)" stroke="none" stroke-width="2" data-to="Backend API (Go)" data-from="Analysis Engine (Go/Python)" data-id="i24" data-et="message" class="messageLine0" y2="1254" x2="1101" y1="1254" x1="1666.5"/><text dy="1em" class="messageText" style="font-size: 16px; font-weight: 400;" alignment-baseline="middle" dominant-baseline="middle" text-anchor="middle" y="1269" x="1236">Store Scan Results</text><line style="fill: none;" marker-end="url(#arrowhead)" stroke="none" stroke-width="2" data-to="MongoDB" data-from="Backend API (Go)" data-id="i25" data-et="message" class="messageLine0" y2="1302" x2="1376" y1="1302" x1="1095"/><text dy="1em" class="messageText" style="font-size: 16px; font-weight: 400;" alignment-baseline="middle" dominant-baseline="middle" text-anchor="middle" y="1317" x="1242">Results Saved Confirmation</text><line marker-end="url(#arrowhead)" style="stroke-dasharray: 3, 3; fill: none;" stroke="none" stroke-width="2" data-to="Backend API (Go)" data-from="MongoDB" data-id="i26" data-et="message" class="messageLine1" y2="1350" x2="1101" y1="1350" x1="1382"/><text dy="1em" class="messageText" style="font-size: 16px; font-weight: 400;" alignment-baseline="middle" dominant-baseline="middle" text-anchor="middle" y="1365" x="849">Notify Scan Complete (e.g., WebSocket or status poll)</text><line style="fill: none;" marker-end="url(#arrowhead)" stroke="none" stroke-width="2" data-to="Frontend (React)" data-from="Backend API (Go)" data-id="i27" data-et="message" class="messageLine0" y2="1398" x2="604" y1="1398" x1="1093"/><text dy="1em" class="messageText" style="font-size: 16px; font-weight: 400;" alignment-baseline="middle" dominant-baseline="middle" text-anchor="middle" y="1413" x="333">View Scan Results/Dashboard</text><line style="fill: none;" marker-end="url(#arrowhead)" stroke="none" stroke-width="2" data-to="Frontend (React)" data-from="User" data-id="i28" data-et="message" class="messageLine0" y2="1446" x2="590" y1="1446" x1="76"/><text dy="1em" class="messageText" style="font-size: 16px; font-weight: 400;" alignment-baseline="middle" dominant-baseline="middle" text-anchor="middle" y="1461" x="843">GET /api/scans/{id}/results</text><line style="fill: none;" marker-end="url(#arrowhead)" stroke="none" stroke-width="2" data-to="Backend API (Go)" data-from="Frontend (React)" data-id="i29" data-et="message" class="messageLine0" y2="1494" x2="1087" y1="1494" x1="598"/><text dy="1em" class="messageText" style="font-size: 16px; font-weight: 400;" alignment-baseline="middle" dominant-baseline="middle" text-anchor="middle" y="1509" x="1236">Fetch Scan Results</text><line style="fill: none;" marker-end="url(#arrowhead)" stroke="none" stroke-width="2" data-to="MongoDB" data-from="Backend API (Go)" data-id="i30" data-et="message" class="messageLine0" y2="1542" x2="1376" y1="1542" x1="1095"/><text dy="1em" class="messageText" style="font-size: 16px; font-weight: 400;" alignment-baseline="middle" dominant-baseline="middle" text-anchor="middle" y="1557" x="1242">Return Stored Results</text><line marker-end="url(#arrowhead)" style="stroke-dasharray: 3, 3; fill: none;" stroke="none" stroke-width="2" data-to="Backend API (Go)" data-from="MongoDB" data-id="i31" data-et="message" class="messageLine1" y2="1590" x2="1101" y1="1590" x1="1382"/><text dy="1em" class="messageText" style="font-size: 16px; font-weight: 400;" alignment-baseline="middle" dominant-baseline="middle" text-anchor="middle" y="1605" x="849">Return Results Data</text><line marker-end="url(#arrowhead)" style="stroke-dasharray: 3, 3; fill: none;" stroke="none" stroke-width="2" data-to="Frontend (React)" data-from="Backend API (Go)" data-id="i32" data-et="message" class="messageLine1" y2="1638" x2="604" y1="1638" x1="1093"/><text dy="1em" class="messageText" style="font-size: 16px; font-weight: 400;" alignment-baseline="middle" dominant-baseline="middle" text-anchor="middle" y="1653" x="339">Display Dashboard (Risks, Explanations, Remediation)</text><line style="fill: none;" marker-end="url(#arrowhead)" stroke="none" stroke-width="2" data-to="User" data-from="Frontend (React)" data-id="i33" data-et="message" class="messageLine0" y2="1686" x2="82" y1="1686" x1="596"/><text dy="1em" class="messageText" style="font-size: 16px; font-weight: 400;" alignment-baseline="middle" dominant-baseline="middle" text-anchor="middle" y="1701" x="2722">Live Data Handling Event</text><line marker-end="url(#arrowhead)" style="stroke-dasharray: 3, 3; fill: none;" stroke="none" stroke-width="2" data-to="RT Monitor (Optional)" data-from="Target System (Code Repo/DB/App)" data-id="i34" data-et="message" class="messageLine1" y2="1734" x2="2865" y1="1734" x1="2579"/><text dy="1em" class="messageText" style="font-size: 16px; font-weight: 400;" alignment-baseline="middle" dominant-baseline="middle" text-anchor="middle" y="1749" x="1986">Stream Event Data</text><line style="fill: none;" marker-end="url(#arrowhead)" stroke="none" stroke-width="2" data-to="Backend API (Go)" data-from="RT Monitor (Optional)" data-id="i35" data-et="message" class="messageLine0" y2="1782" x2="1101" y1="1782" x1="2871"/><text dy="1em" class="messageText" style="font-size: 16px; font-weight: 400;" alignment-baseline="middle" dominant-baseline="middle" text-anchor="middle" y="1797" x="1378">Trigger Focused Analysis (Event Data)</text><line style="fill: none;" marker-end="url(#arrowhead)" stroke="none" stroke-width="2" data-to="Analysis Engine (Go/Python)" data-from="Backend API (Go)" data-id="i36" data-et="message" class="messageLine0" y2="1830" x2="1660.5" y1="1830" x1="1095"/><text dy="1em" class="messageText" style="font-size: 16px; font-weight: 400;" alignment-baseline="middle" dominant-baseline="middle" text-anchor="middle" y="1893" x="1384">Send Real-time Alert/Finding</text><line style="fill: none;" marker-end="url(#arrowhead)" stroke="none" stroke-width="2" data-to="Backend API (Go)" data-from="Analysis Engine (Go/Python)" data-id="i38" data-et="message" class="messageLine0" y2="1926" x2="1101" y1="1926" x1="1666.5"/><text dy="1em" class="messageText" style="font-size: 16px; font-weight: 400;" alignment-baseline="middle" dominant-baseline="middle" text-anchor="middle" y="1941" x="1236">Store Alert</text><line style="fill: none;" marker-end="url(#arrowhead)" stroke="none" stroke-width="2" data-to="MongoDB" data-from="Backend API (Go)" data-id="i39" data-et="message" class="messageLine0" y2="1974" x2="1376" y1="1974" x1="1095"/><text dy="1em" class="messageText" style="font-size: 16px; font-weight: 400;" alignment-baseline="middle" dominant-baseline="middle" text-anchor="middle" y="1989" x="849">Push Real-time Alert (WebSocket)</text><line style="fill: none;" marker-end="url(#arrowhead)" stroke="none" stroke-width="2" data-to="Frontend (React)" data-from="Backend API (Go)" data-id="i40" data-et="message" class="messageLine0" y2="2022" x2="604" y1="2022" x1="1093"/><text dy="1em" class="messageText" style="font-size: 16px; font-weight: 400;" alignment-baseline="middle" dominant-baseline="middle" text-anchor="middle" y="2037" x="339">Display Real-time Alert</text><line style="fill: none;" marker-end="url(#arrowhead)" stroke="none" stroke-width="2" data-to="User" data-from="Frontend (React)" data-id="i41" data-et="message" class="messageLine0" y2="2070" x2="82" y1="2070" x1="596"/></svg>